<?xml version="1.0" encoding="UTF-8" standalone="no"?>
<!DOCTYPE svg PUBLIC "-//W3C//DTD SVG 1.1//EN" "http://www.w3.org/Graphics/SVG/1.1/DTD/svg11.dtd">
<svg width="100%" height="100%" viewBox="0 0 1579 1483" version="1.1" xmlns="http://www.w3.org/2000/svg" xmlns:xlink="http://www.w3.org/1999/xlink" xml:space="preserve" xmlns:serif="http://www.serif.com/" style="fill-rule:evenodd;clip-rule:evenodd;stroke-linejoin:round;stroke-miterlimit:2;">
    <g transform="matrix(1.33333,0,0,1.33333,0,0)">
        <g id="Artboard1" transform="matrix(0.702429,0,0,0.802956,-270.615,-649.213)">
            <rect x="385.255" y="808.529" width="1684.96" height="1384.81" style="fill:none;"/>
            <g transform="matrix(1.42363,0,0,1.2454,-293.646,-438.023)">
                <path d="M780.315,2100.69C610.716,2000.25 496.899,1815.39 496.899,1604.17C496.899,1285.91 755.286,1027.52 1073.55,1027.52C1391.81,1027.52 1650.19,1285.91 1650.19,1604.17C1650.19,1815.39 1536.38,2000.25 1366.78,2100.69C1420.79,2048.23 1453.23,1981.05 1453.23,1907.85C1453.23,1740.24 1283.1,1604.17 1073.55,1604.17C863.993,1604.17 693.862,1740.24 693.862,1907.85C693.862,1981.05 726.308,2048.23 780.315,2100.69ZM1073.55,1219.61C992.952,1219.61 927.519,1285.04 927.519,1365.64C927.519,1446.23 992.952,1511.66 1073.55,1511.66C1154.14,1511.66 1219.57,1446.23 1219.57,1365.64C1219.57,1285.04 1154.14,1219.61 1073.55,1219.61Z"/>
            </g>
        </g>
    </g>
</svg>
